<?xml version="1.0" encoding="UTF-8" standalone="no"?>
<!-- Created with Inkscape (http://www.inkscape.org/) -->

<svg
   xmlns:dc="http://purl.org/dc/elements/1.1/"
   xmlns:cc="http://creativecommons.org/ns#"
   xmlns:rdf="http://www.w3.org/1999/02/22-rdf-syntax-ns#"
   xmlns:svg="http://www.w3.org/2000/svg"
   xmlns="http://www.w3.org/2000/svg"
   xmlns:sodipodi="http://sodipodi.sourceforge.net/DTD/sodipodi-0.dtd"
   xmlns:inkscape="http://www.inkscape.org/namespaces/inkscape"
   width="210mm"
   height="297mm"
   viewBox="0 0 210 297"
   version="1.1"
   id="svg605"
   inkscape:version="0.92.1 r15371"
   sodipodi:docname="logo scoutup.svg">
  <defs
     id="defs599" />
  <sodipodi:namedview
     id="base"
     pagecolor="#ffffff"
     bordercolor="#666666"
     borderopacity="1.0"
     inkscape:pageopacity="0.0"
     inkscape:pageshadow="2"
     inkscape:zoom="1.4"
     inkscape:cx="405.75113"
     inkscape:cy="555.23654"
     inkscape:document-units="mm"
     inkscape:current-layer="layer1"
     showgrid="false"
     inkscape:window-width="1920"
     inkscape:window-height="1018"
     inkscape:window-x="-8"
     inkscape:window-y="-8"
     inkscape:window-maximized="1" />
  <metadata
     id="metadata602">
    <rdf:RDF>
      <cc:Work
         rdf:about="">
        <dc:format>image/svg+xml</dc:format>
        <dc:type
           rdf:resource="http://purl.org/dc/dcmitype/StillImage" />
        <dc:title></dc:title>
      </cc:Work>
    </rdf:RDF>
  </metadata>
  <g
     inkscape:label="Camada 1"
     inkscape:groupmode="layer"
     id="layer1">
    <g
       transform="matrix(0.26458333,0,0,0.26458333,73.359395,125.12289)"
       id="g475">
      <text
         y="160.50136"
         x="52.130798"
         id="text34"
         style="font-variant:normal;font-weight:normal;font-stretch:normal;font-size:37.7246666px;font-family:'Claire Hand';-inkscape-font-specification:ClaireHand-Regular;writing-mode:lr-tb;fill:#000000;fill-opacity:1;fill-rule:nonzero;stroke:none;stroke-width:1.33333325">
        <tspan
           style="stroke-width:1.33333325"
           id="tspan32"
           y="160.50136"
           x="52.130798 72.653015 90.949478 113.58428 134.10651 151.42212 161.90958 182.43179 198.9552">scout up!</tspan>
      </text>
      <g
         transform="matrix(1.3333333,0,0,-1.3333333,235.50319,158.63669)"
         id="g44">
        <path
           id="path46"
           style="fill:#000000;fill-opacity:1;fill-rule:nonzero;stroke:none"
           d="M 0,0 C -0.057,1.529 -0.296,2.999 -0.792,4.275 -1.124,4.073 -1.466,3.879 -1.827,3.698 -4.129,2.543 -2.271,-0.809 0,0"
           inkscape:connector-curvature="0" />
      </g>
      <g
         transform="matrix(1.3333333,0,0,-1.3333333,241.16079,145.22589)"
         id="g48">
        <path
           id="path50"
           style="fill:#000000;fill-opacity:1;fill-rule:nonzero;stroke:none"
           d="m 0,0 c -0.636,-1.519 -1.582,-2.92 -2.863,-4.127 0.818,-1.277 1.427,-2.587 1.824,-3.94 2.037,1.62 3.56,3.62 4.58,5.841 C 2.536,-1.258 1.326,-0.49 0,0"
           inkscape:connector-curvature="0" />
      </g>
      <g
         transform="matrix(1.3333333,0,0,-1.3333333,229.18359,111.36789)"
         id="g52">
        <path
           id="path54"
           style="fill:#000000;fill-opacity:1;fill-rule:nonzero;stroke:none"
           d="M 0,0 C -2.484,1.068 -5.123,1.76 -7.81,2.091 -8.564,1.122 -9.243,-0.413 -9.584,-1.885 -6.903,-2.067 -4.255,-2.688 -1.772,-3.747 -1.369,-2.403 -0.769,-1.1 0,0"
           inkscape:connector-curvature="0" />
      </g>
      <g
         transform="matrix(1.3333333,0,0,-1.3333333,200.63613,110.68162)"
         id="g56">
        <path
           id="path58"
           style="fill:#000000;fill-opacity:1;fill-rule:nonzero;stroke:none"
           d="m 0,0 c -2.028,-0.765 -3.974,-1.759 -5.769,-3.02 -1.821,-1.279 -0.791,-4.544 1.604,-3.802 2.587,0.802 4.961,1.976 7.128,3.42 0.357,0.109 0.717,0.203 1.079,0.295 C 2.829,-1.931 1.376,-1 0,0"
           inkscape:connector-curvature="0" />
      </g>
      <g
         transform="matrix(1.3333333,0,0,-1.3333333,169.472,27.177092)"
         id="g60">
        <path
           id="path62"
           style="fill:#000000;fill-opacity:1;fill-rule:nonzero;stroke:none"
           d="m 0,0 c 0.107,-1.384 0.558,-2.902 0.805,-4.245 3.748,-0.531 7.432,-1.464 10.978,-2.885 0.659,1.224 1.51,2.39 2.475,3.428 C 9.709,-1.791 4.907,-0.59 0,0"
           inkscape:connector-curvature="0" />
      </g>
      <g
         transform="matrix(1.3333333,0,0,-1.3333333,165.87306,26.820959)"
         id="g64">
        <path
           id="path66"
           style="fill:#000000;fill-opacity:1;fill-rule:nonzero;stroke:none"
           d="m 0,0 c -4.256,0.316 -8.57,0.186 -12.85,-0.349 0.274,-1.362 0.391,-2.765 0.629,-4.127 4.18,0.522 8.404,0.661 12.574,0.319 C 0.103,-2.805 -0.014,-1.397 0,0"
           inkscape:connector-curvature="0" />
      </g>
      <g
         transform="matrix(1.3333333,0,0,-1.3333333,143.84706,28.038426)"
         id="g68">
        <path
           id="path70"
           style="fill:#000000;fill-opacity:1;fill-rule:nonzero;stroke:none"
           d="m 0,0 c -4.52,-0.787 -9.112,-1.979 -13.631,-3.508 -0.243,-1.182 1.36,-2.992 2.063,-3.783 2.187,0.726 4.377,1.376 6.546,1.94 1.934,0.503 3.896,0.925 5.872,1.272 C 0.386,-2.781 0.105,-1.387 0,0"
           inkscape:connector-curvature="0" />
      </g>
      <g
         transform="matrix(1.3333333,0,0,-1.3333333,108.69986,46.288425)"
         id="g72">
        <path
           id="path74"
           style="fill:#000000;fill-opacity:1;fill-rule:nonzero;stroke:none"
           d="M 0,0 C 3.702,2.043 7.588,3.801 11.538,5.263 10.787,6.473 10.208,7.798 9.824,9.173 5.426,7.521 1.153,5.501 -2.883,3.169 -2.331,1.924 -1.257,0.891 0,0"
           inkscape:connector-curvature="0" />
      </g>
      <g
         transform="matrix(1.3333333,0,0,-1.3333333,90.665998,59.541092)"
         id="g76">
        <path
           id="path78"
           style="fill:#000000;fill-opacity:1;fill-rule:nonzero;stroke:none"
           d="M 0,0 C 0.01,0.01 0.02,0.021 0.029,0.031 3.244,3.245 6.942,6.035 10.918,8.452 10.352,9.094 9.805,9.798 9.277,10.523 9.105,10.743 8.945,10.969 8.799,11.203 8.667,11.396 8.524,11.579 8.397,11.775 5.027,9.673 1.85,7.344 -1.017,4.767 -1.721,4.135 -2.396,3.464 -3.059,2.778 -2.083,1.783 -1.089,0.812 0,0"
           inkscape:connector-curvature="0" />
      </g>
      <g
         transform="matrix(1.3333333,0,0,-1.3333333,78.858665,79.505224)"
         id="g80">
        <path
           id="path82"
           style="fill:#000000;fill-opacity:1;fill-rule:nonzero;stroke:none"
           d="M 0,0 C 1.248,4.5 3.558,8.793 6.576,12.457 5.459,13.216 4.425,14.148 3.502,15.193 -0.025,10.887 -2.707,5.833 -4.116,0.546 -2.747,0.355 -1.374,0.147 0,0"
           inkscape:connector-curvature="0" />
      </g>
      <g
         transform="matrix(1.3333333,0,0,-1.3333333,78.562531,97.457757)"
         id="g84">
        <path
           id="path86"
           style="fill:#000000;fill-opacity:1;fill-rule:nonzero;stroke:none"
           d="M 0,0 C -0.897,3.312 -1.021,6.736 -0.507,10.105 -1.846,10.12 -3.245,10.294 -4.62,10.621 -5.125,7.396 -5.119,4.128 -4.518,0.922 -3.012,0.524 -1.509,0.19 0,0"
           inkscape:connector-curvature="0" />
      </g>
      <g
         transform="matrix(1.3333333,0,0,-1.3333333,58.715465,102.78776)"
         id="g88">
        <path
           id="path90"
           style="fill:#000000;fill-opacity:1;fill-rule:nonzero;stroke:none"
           d="M 0,0 C 2.119,-0.082 4.229,-0.407 6.263,-1.002 6.097,0.496 5.933,2.002 5.347,3.438 5.344,3.445 5.34,3.452 5.337,3.458 2.759,4.023 0.112,4.243 -2.517,4.123 -1.451,3.021 -0.628,1.537 0,0"
           inkscape:connector-curvature="0" />
      </g>
      <g
         transform="matrix(1.3333333,0,0,-1.3333333,43.460266,105.72136)"
         id="g92">
        <path
           id="path94"
           style="fill:#000000;fill-opacity:1;fill-rule:nonzero;stroke:none"
           d="M 0,0 C 2.284,1.045 4.726,1.729 7.225,2.036 6.696,3.29 5.888,4.507 4.907,5.617 4.86,5.617 4.817,5.628 4.77,5.625 4.558,5.616 4.375,5.652 4.219,5.72 1.361,5.123 -1.409,4.093 -3.975,2.624 -2.49,2.231 -1.148,1.241 0,0"
           inkscape:connector-curvature="0" />
      </g>
      <g
         transform="matrix(1.3333333,0,0,-1.3333333,31.843733,115.18949)"
         id="g96">
        <path
           id="path98"
           style="fill:#000000;fill-opacity:1;fill-rule:nonzero;stroke:none"
           d="M 0,0 C 0.7,0.962 1.46,1.89 2.325,2.746 3.442,3.851 4.672,4.796 5.972,5.62 4.667,6.518 3.098,7.148 1.464,7.512 1.039,7.176 0.617,6.832 0.209,6.466 -1.744,4.715 -3.356,2.684 -4.668,0.484 -3.127,0.649 -1.536,0.446 0,0"
           inkscape:connector-curvature="0" />
      </g>
      <g
         transform="matrix(1.3333333,0,0,-1.3333333,26.163999,129.29042)"
         id="g100">
        <path
           id="path102"
           style="fill:#000000;fill-opacity:1;fill-rule:nonzero;stroke:none"
           d="M 0,0 C 0.431,2.928 1.365,5.777 2.827,8.372 2.111,8.53 1.387,8.614 0.668,8.61 0.619,8.603 0.572,8.602 0.522,8.593 -0.334,8.449 -1.208,8.187 -2.068,7.846 -3.428,4.681 -4.187,1.264 -4.376,-2.188 -3.148,-1.08 -1.602,-0.299 0,0"
           inkscape:connector-curvature="0" />
      </g>
      <g
         transform="matrix(1.3333333,0,0,-1.3333333,29.725199,150.33536)"
         id="g104">
        <path
           id="path106"
           style="fill:#000000;fill-opacity:1;fill-rule:nonzero;stroke:none"
           d="m 0,0 c -0.838,-1.445 -1.363,-3.26 -1.685,-5.181 0.014,-0.017 0.024,-0.036 0.037,-0.053 1.576,-2.129 5.189,-0.056 3.593,2.1 C 1.208,-2.14 0.571,-1.086 0,0"
           inkscape:connector-curvature="0" />
      </g>
      <g
         transform="matrix(1.3333333,0,0,-1.3333333,27.770133,145.80602)"
         id="g108">
        <path
           id="path110"
           style="fill:#000000;fill-opacity:1;fill-rule:nonzero;stroke:none"
           d="M 0,0 C -1.051,2.995 -1.556,6.171 -1.47,9.333 -1.729,9.245 -1.983,9.147 -2.225,9.023 -3.618,8.307 -4.479,7.007 -5.08,5.61 -5.199,5.333 -5.308,5.05 -5.409,4.766 -5.013,1.547 -4.09,-1.598 -2.661,-4.505 -2.202,-2.73 -1.305,-1.181 0,0"
           inkscape:connector-curvature="0" />
      </g>
      <g
         transform="matrix(1.3333333,0,0,-1.3333333,82.927065,106.83536)"
         id="g112">
        <path
           id="path114"
           style="fill:#000000;fill-opacity:1;fill-rule:nonzero;stroke:none"
           d="M 0,0 C -0.907,1.309 -1.649,2.661 -2.242,4.043 -3.872,4.017 -5.491,4.4 -7.073,5.027 -7.023,4.869 -6.984,4.708 -6.931,4.55 -7.848,4.963 -8.789,5.312 -9.741,5.628 -9.558,4.036 -9.191,2.469 -8.833,0.9 -6.838,0.021 -4.953,-1.11 -3.268,-2.521 -1.591,-3.924 1.445,-2.085 0,0"
           inkscape:connector-curvature="0" />
      </g>
      <g
         transform="matrix(1.3333333,0,0,-1.3333333,202.44599,40.170559)"
         id="g116">
        <path
           id="path118"
           style="fill:#000000;fill-opacity:1;fill-rule:nonzero;stroke:none"
           d="M 0,0 C -2.551,1.956 -5.261,3.58 -8.072,4.943 -9.033,3.88 -9.89,2.734 -10.17,1.403 c 0.406,-0.196 0.811,-0.399 1.213,-0.609 2.437,-1.276 4.793,-2.809 6.989,-4.558 0.696,1.223 1.553,2.365 2.541,3.302 C 0.38,-0.31 0.195,-0.149 0,0"
           inkscape:connector-curvature="0" />
      </g>
      <g
         transform="matrix(1.3333333,0,0,-1.3333333,206.28319,43.401092)"
         id="g120">
        <path
           id="path122"
           style="fill:#000000;fill-opacity:1;fill-rule:nonzero;stroke:none"
           d="m 0,0 c -1.066,-0.952 -2.014,-2.005 -2.559,-3.303 2.989,-2.748 5.577,-5.926 7.498,-9.447 0.41,0.272 0.837,0.52 1.271,0.754 0.679,0.54 1.39,1.05 2.134,1.481 C 6.203,-6.611 3.354,-3.059 0,0"
           inkscape:connector-curvature="0" />
      </g>
      <g
         transform="matrix(1.3333333,0,0,-1.3333333,214.52346,63.788425)"
         id="g124">
        <path
           id="path126"
           style="fill:#000000;fill-opacity:1;fill-rule:nonzero;stroke:none"
           d="m 0,0 c 1.227,-2.824 2.036,-5.832 2.282,-8.99 0.11,-1.415 0.11,-2.839 0.015,-4.258 1.372,0.429 2.776,0.739 4.182,0.887 C 6.609,-7.114 5.43,-2.07 3.28,2.558 2.083,1.859 0.99,0.889 0,0"
           inkscape:connector-curvature="0" />
      </g>
      <g
         transform="matrix(1.3333333,0,0,-1.3333333,216.97199,86.510424)"
         id="g128">
        <path
           id="path130"
           style="fill:#000000;fill-opacity:1;fill-rule:nonzero;stroke:none"
           d="M 0,0 C -0.019,-0.005 -0.035,-0.005 -0.053,-0.01 -0.666,-3.168 -1.759,-6.232 -3.319,-9.017 -1.874,-9.072 -0.429,-9.332 0.96,-9.789 2.685,-6.382 3.848,-2.66 4.364,1.183 2.874,0.97 1.38,0.388 0,0"
           inkscape:connector-curvature="0" />
      </g>
      <g
         transform="matrix(1.3333333,0,0,-1.3333333,215.95506,103.54882)"
         id="g132">
        <path
           id="path134"
           style="fill:#000000;fill-opacity:1;fill-rule:nonzero;stroke:none"
           d="m 0,0 c -1.391,0.325 -2.728,0.829 -3.96,1.532 -1.291,-1.869 -2.801,-3.571 -4.519,-5.045 1.585,-1.269 2.966,-2.742 4.171,-4.357 0.389,0.049 0.78,0.089 1.171,0.117 0.61,1.173 1.3,2.248 1.774,2.947 0.185,0.435 0.384,0.861 0.612,1.258 -0.626,0.018 -1.252,0.024 -1.878,-10e-4 C -1.667,-2.436 -0.796,-1.245 0,0"
           inkscape:connector-curvature="0" />
      </g>
      <g
         transform="matrix(1.3333333,0,0,-1.3333333,239.56439,127.32362)"
         id="g136">
        <path
           id="path138"
           style="fill:#000000;fill-opacity:1;fill-rule:nonzero;stroke:none"
           d="M 0,0 C 1.221,0.715 2.538,1.273 3.893,1.688 2.988,3.395 1.851,4.994 0.465,6.396 -1.301,8.183 -3.318,9.652 -5.483,10.837 -6.299,9.809 -6.931,8.471 -7.303,7.12 -6.174,6.484 -5.089,5.755 -4.071,4.918 -2.402,3.545 -1.036,1.853 0,0"
           inkscape:connector-curvature="0" />
      </g>
      <g
         transform="matrix(1.3333333,0,0,-1.3333333,242.21546,141.61656)"
         id="g140">
        <path
           id="path142"
           style="fill:#000000;fill-opacity:1;fill-rule:nonzero;stroke:none"
           d="M 0,0 C 1.335,-0.647 2.56,-1.438 3.665,-2.366 4.782,1.654 4.491,6.1 2.93,10.138 1.58,9.749 0.271,9.177 -0.925,8.441 0.131,5.7 0.491,2.755 0,0"
           inkscape:connector-curvature="0" />
      </g>
    </g>
  </g>
</svg>
